<svg xmlns="http://www.w3.org/2000/svg" viewBox="0 0 600 280" width="600" role="img" aria-label="OTO type wire drawing machine, side view"><style>
.ln{fill:none;stroke-width:1.6;stroke-linecap:round;stroke-linejoin:round}
.lt{fill:none;stroke-width:1;stroke-linecap:round}
.lk{fill:none;stroke-width:3;stroke-linecap:round;stroke-linejoin:round}
.dsh{stroke-dasharray:5 5}
.s-steel{stroke:#1E4F91}.s-soft{stroke:#8EA6CC}.s-teal{stroke:#0070AD}.s-amber{stroke:#FFB400}.s-dk{stroke:#7F9CCB}.s-dk2{stroke:#C8D6F0}
.f-teal{fill:#0070AD}.f-amber{fill:#FFB400}.f-steel{fill:#1E4F91}.f-zinc{fill:#E6F6FA}.f-white{fill:#FFFFFF}.f-ink{fill:#0A1F4D}.f-soft{fill:#C9D6EA}
.lbl{font-family:'Archivo',sans-serif;font-size:11px;font-weight:500;fill:#475A78}
.lbl-d{font-family:'Archivo',sans-serif;font-size:11px;font-weight:500;fill:#B9C8E8}
.mid{text-anchor:middle}
@keyframes run{to{stroke-dashoffset:-40}}
.wire-run{stroke-dasharray:6 14;animation:run 1.4s linear infinite}
@keyframes pulse{0%,45%{opacity:.95}50%,100%{opacity:.12}}
.pulse{animation:pulse 2.4s steps(1,end) infinite}
@keyframes melt{0%,100%{opacity:.82}50%{opacity:1}}
.melt{animation:melt 4s ease-in-out infinite}
@media (prefers-reduced-motion: reduce){.wire-run,.pulse,.melt{animation:none}}</style><line x1="0" y1="262" x2="600" y2="262" class="ln s-soft"></line><rect x="60" y="170" width="74" height="92" rx="3" class="ln s-steel"></rect><ellipse cx="97" cy="120" rx="33" ry="9" class="ln s-steel"></ellipse><line x1="64" y1="120" x2="64" y2="162" class="ln s-steel"></line><line x1="130" y1="120" x2="130" y2="162" class="ln s-steel"></line><path d="M64 162 A33 9 0 0 0 130 162" class="ln s-steel"></path><path d="M64 134 A33 9 0 0 0 130 134" class="ln s-teal"></path><path d="M64 142 A33 9 0 0 0 130 142" class="ln s-teal"></path><path d="M64 150 A33 9 0 0 0 130 150" class="ln s-teal"></path><path d="M64 158 A33 9 0 0 0 130 158" class="ln s-teal"></path><line x1="97" y1="111" x2="97" y2="46" class="ln s-steel"></line><line x1="97" y1="46" x2="148" y2="46" class="ln s-steel"></line><circle cx="148" cy="46" r="12" class="ln s-steel"></circle><rect x="46" y="140" width="12" height="22" rx="1" class="ln s-steel"></rect><rect x="164" y="170" width="74" height="92" rx="3" class="ln s-steel"></rect><ellipse cx="201" cy="120" rx="33" ry="9" class="ln s-steel"></ellipse><line x1="168" y1="120" x2="168" y2="162" class="ln s-steel"></line><line x1="234" y1="120" x2="234" y2="162" class="ln s-steel"></line><path d="M168 162 A33 9 0 0 0 234 162" class="ln s-steel"></path><path d="M168 134 A33 9 0 0 0 234 134" class="ln s-teal"></path><path d="M168 142 A33 9 0 0 0 234 142" class="ln s-teal"></path><path d="M168 150 A33 9 0 0 0 234 150" class="ln s-teal"></path><path d="M168 158 A33 9 0 0 0 234 158" class="ln s-teal"></path><line x1="201" y1="111" x2="201" y2="46" class="ln s-steel"></line><line x1="201" y1="46" x2="252" y2="46" class="ln s-steel"></line><circle cx="252" cy="46" r="12" class="ln s-steel"></circle><rect x="150" y="140" width="12" height="22" rx="1" class="ln s-steel"></rect><rect x="268" y="170" width="74" height="92" rx="3" class="ln s-steel"></rect><ellipse cx="305" cy="120" rx="33" ry="9" class="ln s-steel"></ellipse><line x1="272" y1="120" x2="272" y2="162" class="ln s-steel"></line><line x1="338" y1="120" x2="338" y2="162" class="ln s-steel"></line><path d="M272 162 A33 9 0 0 0 338 162" class="ln s-steel"></path><path d="M272 134 A33 9 0 0 0 338 134" class="ln s-teal"></path><path d="M272 142 A33 9 0 0 0 338 142" class="ln s-teal"></path><path d="M272 150 A33 9 0 0 0 338 150" class="ln s-teal"></path><path d="M272 158 A33 9 0 0 0 338 158" class="ln s-teal"></path><line x1="305" y1="111" x2="305" y2="46" class="ln s-steel"></line><line x1="305" y1="46" x2="356" y2="46" class="ln s-steel"></line><circle cx="356" cy="46" r="12" class="ln s-steel"></circle><rect x="254" y="140" width="12" height="22" rx="1" class="ln s-steel"></rect><rect x="372" y="170" width="74" height="92" rx="3" class="ln s-steel"></rect><ellipse cx="409" cy="120" rx="33" ry="9" class="ln s-steel"></ellipse><line x1="376" y1="120" x2="376" y2="162" class="ln s-steel"></line><line x1="442" y1="120" x2="442" y2="162" class="ln s-steel"></line><path d="M376 162 A33 9 0 0 0 442 162" class="ln s-steel"></path><path d="M376 134 A33 9 0 0 0 442 134" class="ln s-teal"></path><path d="M376 142 A33 9 0 0 0 442 142" class="ln s-teal"></path><path d="M376 150 A33 9 0 0 0 442 150" class="ln s-teal"></path><path d="M376 158 A33 9 0 0 0 442 158" class="ln s-teal"></path><line x1="409" y1="111" x2="409" y2="46" class="ln s-steel"></line><line x1="409" y1="46" x2="460" y2="46" class="ln s-steel"></line><circle cx="460" cy="46" r="12" class="ln s-steel"></circle><rect x="358" y="140" width="12" height="22" rx="1" class="ln s-steel"></rect><rect x="476" y="170" width="74" height="92" rx="3" class="ln s-steel"></rect><ellipse cx="513" cy="120" rx="33" ry="9" class="ln s-steel"></ellipse><line x1="480" y1="120" x2="480" y2="162" class="ln s-steel"></line><line x1="546" y1="120" x2="546" y2="162" class="ln s-steel"></line><path d="M480 162 A33 9 0 0 0 546 162" class="ln s-steel"></path><path d="M480 134 A33 9 0 0 0 546 134" class="ln s-teal"></path><path d="M480 142 A33 9 0 0 0 546 142" class="ln s-teal"></path><path d="M480 150 A33 9 0 0 0 546 150" class="ln s-teal"></path><path d="M480 158 A33 9 0 0 0 546 158" class="ln s-teal"></path><line x1="513" y1="111" x2="513" y2="46" class="ln s-steel"></line><line x1="513" y1="46" x2="564" y2="46" class="ln s-steel"></line><circle cx="564" cy="46" r="12" class="ln s-steel"></circle><rect x="462" y="140" width="12" height="22" rx="1" class="ln s-steel"></rect><path d="M10 150 L52 151 L64 158 M130 134 L160 46 M136 46 L156 151 L156 151 L168 158 M234 134 L264 46 M240 46 L260 151 L260 151 L272 158 M338 134 L368 46 M344 46 L364 151 L364 151 L376 158 M442 134 L472 46 M448 46 L468 151 L468 151 L480 158 M546 134 L576 46" class="lk s-teal"></path><path d="M10 150 L52 151 L64 158 M130 134 L160 46 M136 46 L156 151 L156 151 L168 158 M234 134 L264 46 M240 46 L260 151 L260 151 L272 158 M338 134 L368 46 M344 46 L364 151 L364 151 L376 158 M442 134 L472 46 M448 46 L468 151 L468 151 L480 158 M546 134 L576 46" class="ln s-dk2 wire-run"></path></svg>